<svg width="151" height="45" viewBox="0 0 151 45" fill="none" xmlns="http://www.w3.org/2000/svg">
<g opacity="0.2">
<circle cx="148.294" cy="42.0369" r="2.20588" transform="rotate(180 148.294 42.0369)" fill="#FDB241"/>
<circle cx="135.059" cy="42.0369" r="2.20588" transform="rotate(180 135.059 42.0369)" fill="#FDB241"/>
<circle cx="121.823" cy="42.0369" r="2.20588" transform="rotate(180 121.823 42.0369)" fill="#FDB241"/>
<circle cx="108.588" cy="42.0369" r="2.20588" transform="rotate(180 108.588 42.0369)" fill="#FDB241"/>
<circle cx="95.3527" cy="42.0369" r="2.20588" transform="rotate(180 95.3527 42.0369)" fill="#FDB241"/>
<circle cx="82.1174" cy="42.0369" r="2.20588" transform="rotate(180 82.1174 42.0369)" fill="#FDB241"/>
<circle cx="68.882" cy="42.0369" r="2.20588" transform="rotate(180 68.882 42.0369)" fill="#FDB241"/>
<circle cx="55.6467" cy="42.0369" r="2.20588" transform="rotate(180 55.6467 42.0369)" fill="#FDB241"/>
<circle cx="42.4113" cy="42.0369" r="2.20588" transform="rotate(180 42.4113 42.0369)" fill="#FDB241"/>
<circle cx="29.1769" cy="42.0369" r="2.20588" transform="rotate(180 29.1769 42.0369)" fill="#FDB241"/>
<circle cx="15.9416" cy="42.0369" r="2.20588" transform="rotate(180 15.9416 42.0369)" fill="#FDB241"/>
<circle cx="2.70623" cy="42.0369" r="2.20588" transform="rotate(180 2.70623 42.0369)" fill="#FDB241"/>
<circle cx="148.294" cy="28.8016" r="2.20588" transform="rotate(180 148.294 28.8016)" fill="#FDB241"/>
<circle cx="135.059" cy="28.8016" r="2.20588" transform="rotate(180 135.059 28.8016)" fill="#FDB241"/>
<circle cx="121.823" cy="28.8016" r="2.20588" transform="rotate(180 121.823 28.8016)" fill="#FDB241"/>
<circle cx="108.588" cy="28.8016" r="2.20588" transform="rotate(180 108.588 28.8016)" fill="#FDB241"/>
<circle cx="95.3527" cy="28.8016" r="2.20588" transform="rotate(180 95.3527 28.8016)" fill="#FDB241"/>
<circle cx="82.1174" cy="28.8016" r="2.20588" transform="rotate(180 82.1174 28.8016)" fill="#FDB241"/>
<circle cx="68.882" cy="28.8016" r="2.20588" transform="rotate(180 68.882 28.8016)" fill="#FDB241"/>
<circle cx="55.6467" cy="28.8016" r="2.20588" transform="rotate(180 55.6467 28.8016)" fill="#FDB241"/>
<circle cx="42.4113" cy="28.8016" r="2.20588" transform="rotate(180 42.4113 28.8016)" fill="#FDB241"/>
<circle cx="29.1769" cy="28.8016" r="2.20588" transform="rotate(180 29.1769 28.8016)" fill="#FDB241"/>
<circle cx="15.9416" cy="28.8016" r="2.20588" transform="rotate(180 15.9416 28.8016)" fill="#FDB241"/>
<circle cx="2.70623" cy="28.8016" r="2.20588" transform="rotate(180 2.70623 28.8016)" fill="#FDB241"/>
<circle cx="148.294" cy="15.5663" r="2.20588" transform="rotate(180 148.294 15.5663)" fill="#FDB241"/>
<circle cx="135.059" cy="15.5663" r="2.20588" transform="rotate(180 135.059 15.5663)" fill="#FDB241"/>
<circle cx="121.823" cy="15.5663" r="2.20588" transform="rotate(180 121.823 15.5663)" fill="#FDB241"/>
<circle cx="108.588" cy="15.5663" r="2.20588" transform="rotate(180 108.588 15.5663)" fill="#FDB241"/>
<circle cx="95.3527" cy="15.5663" r="2.20588" transform="rotate(180 95.3527 15.5663)" fill="#FDB241"/>
<circle cx="82.1174" cy="15.5663" r="2.20588" transform="rotate(180 82.1174 15.5663)" fill="#FDB241"/>
<circle cx="68.882" cy="15.5663" r="2.20588" transform="rotate(180 68.882 15.5663)" fill="#FDB241"/>
<circle cx="55.6467" cy="15.5663" r="2.20588" transform="rotate(180 55.6467 15.5663)" fill="#FDB241"/>
<circle cx="42.4113" cy="15.5663" r="2.20588" transform="rotate(180 42.4113 15.5663)" fill="#FDB241"/>
<circle cx="29.1769" cy="15.5663" r="2.20588" transform="rotate(180 29.1769 15.5663)" fill="#FDB241"/>
<circle cx="15.9416" cy="15.5663" r="2.20588" transform="rotate(180 15.9416 15.5663)" fill="#FDB241"/>
<circle cx="2.70623" cy="15.5663" r="2.20588" transform="rotate(180 2.70623 15.5663)" fill="#FDB241"/>
<circle cx="148.294" cy="2.33098" r="2.20588" transform="rotate(180 148.294 2.33098)" fill="#FDB241"/>
<circle cx="135.059" cy="2.33098" r="2.20588" transform="rotate(180 135.059 2.33098)" fill="#FDB241"/>
<circle cx="121.823" cy="2.33098" r="2.20588" transform="rotate(180 121.823 2.33098)" fill="#FDB241"/>
<circle cx="108.588" cy="2.33098" r="2.20588" transform="rotate(180 108.588 2.33098)" fill="#FDB241"/>
<circle cx="95.3527" cy="2.33098" r="2.20588" transform="rotate(180 95.3527 2.33098)" fill="#FDB241"/>
<circle cx="82.1174" cy="2.33098" r="2.20588" transform="rotate(180 82.1174 2.33098)" fill="#FDB241"/>
<circle cx="68.882" cy="2.33098" r="2.20588" transform="rotate(180 68.882 2.33098)" fill="#FDB241"/>
<circle cx="55.6467" cy="2.33098" r="2.20588" transform="rotate(180 55.6467 2.33098)" fill="#FDB241"/>
<circle cx="42.4113" cy="2.33098" r="2.20588" transform="rotate(180 42.4113 2.33098)" fill="#FDB241"/>
<circle cx="29.1769" cy="2.33098" r="2.20588" transform="rotate(180 29.1769 2.33098)" fill="#FDB241"/>
<circle cx="15.9416" cy="2.33098" r="2.20588" transform="rotate(180 15.9416 2.33098)" fill="#FDB241"/>
<circle cx="2.70623" cy="2.33098" r="2.20588" transform="rotate(180 2.70623 2.33098)" fill="#FDB241"/>
</g>
</svg>
