<svg width="150" height="45" viewBox="0 0 150 45" fill="none" xmlns="http://www.w3.org/2000/svg">
<g opacity="0.2">
<circle cx="147.794" cy="41.9118" r="2.20588" transform="rotate(180 147.794 41.9118)" fill="#0073AB"/>
<circle cx="134.559" cy="41.9118" r="2.20588" transform="rotate(180 134.559 41.9118)" fill="#0073AB"/>
<circle cx="121.323" cy="41.9118" r="2.20588" transform="rotate(180 121.323 41.9118)" fill="#0073AB"/>
<circle cx="108.088" cy="41.9118" r="2.20588" transform="rotate(180 108.088 41.9118)" fill="#0073AB"/>
<circle cx="94.8527" cy="41.9118" r="2.20588" transform="rotate(180 94.8527 41.9118)" fill="#0073AB"/>
<circle cx="81.6174" cy="41.9118" r="2.20588" transform="rotate(180 81.6174 41.9118)" fill="#0073AB"/>
<circle cx="68.382" cy="41.9118" r="2.20588" transform="rotate(180 68.382 41.9118)" fill="#0073AB"/>
<circle cx="55.1467" cy="41.9118" r="2.20588" transform="rotate(180 55.1467 41.9118)" fill="#0073AB"/>
<circle cx="41.9113" cy="41.9118" r="2.20588" transform="rotate(180 41.9113 41.9118)" fill="#0073AB"/>
<circle cx="28.6769" cy="41.9118" r="2.20588" transform="rotate(180 28.6769 41.9118)" fill="#0073AB"/>
<circle cx="15.4416" cy="41.9118" r="2.20588" transform="rotate(180 15.4416 41.9118)" fill="#0073AB"/>
<circle cx="2.20623" cy="41.9118" r="2.20588" transform="rotate(180 2.20623 41.9118)" fill="#0073AB"/>
<circle cx="147.794" cy="28.6765" r="2.20588" transform="rotate(180 147.794 28.6765)" fill="#0073AB"/>
<circle cx="134.559" cy="28.6765" r="2.20588" transform="rotate(180 134.559 28.6765)" fill="#0073AB"/>
<circle cx="121.323" cy="28.6765" r="2.20588" transform="rotate(180 121.323 28.6765)" fill="#0073AB"/>
<circle cx="108.088" cy="28.6765" r="2.20588" transform="rotate(180 108.088 28.6765)" fill="#0073AB"/>
<circle cx="94.8527" cy="28.6765" r="2.20588" transform="rotate(180 94.8527 28.6765)" fill="#0073AB"/>
<circle cx="81.6174" cy="28.6765" r="2.20588" transform="rotate(180 81.6174 28.6765)" fill="#0073AB"/>
<circle cx="68.382" cy="28.6765" r="2.20588" transform="rotate(180 68.382 28.6765)" fill="#0073AB"/>
<circle cx="55.1467" cy="28.6765" r="2.20588" transform="rotate(180 55.1467 28.6765)" fill="#0073AB"/>
<circle cx="41.9113" cy="28.6765" r="2.20588" transform="rotate(180 41.9113 28.6765)" fill="#0073AB"/>
<circle cx="28.6769" cy="28.6765" r="2.20588" transform="rotate(180 28.6769 28.6765)" fill="#0073AB"/>
<circle cx="15.4416" cy="28.6765" r="2.20588" transform="rotate(180 15.4416 28.6765)" fill="#0073AB"/>
<circle cx="2.20623" cy="28.6765" r="2.20588" transform="rotate(180 2.20623 28.6765)" fill="#0073AB"/>
<circle cx="147.794" cy="15.4412" r="2.20588" transform="rotate(180 147.794 15.4412)" fill="#0073AB"/>
<circle cx="134.559" cy="15.4412" r="2.20588" transform="rotate(180 134.559 15.4412)" fill="#0073AB"/>
<circle cx="121.323" cy="15.4412" r="2.20588" transform="rotate(180 121.323 15.4412)" fill="#0073AB"/>
<circle cx="108.088" cy="15.4412" r="2.20588" transform="rotate(180 108.088 15.4412)" fill="#0073AB"/>
<circle cx="94.8527" cy="15.4412" r="2.20588" transform="rotate(180 94.8527 15.4412)" fill="#0073AB"/>
<circle cx="81.6174" cy="15.4412" r="2.20588" transform="rotate(180 81.6174 15.4412)" fill="#0073AB"/>
<circle cx="68.382" cy="15.4412" r="2.20588" transform="rotate(180 68.382 15.4412)" fill="#0073AB"/>
<circle cx="55.1467" cy="15.4412" r="2.20588" transform="rotate(180 55.1467 15.4412)" fill="#0073AB"/>
<circle cx="41.9113" cy="15.4412" r="2.20588" transform="rotate(180 41.9113 15.4412)" fill="#0073AB"/>
<circle cx="28.6769" cy="15.4412" r="2.20588" transform="rotate(180 28.6769 15.4412)" fill="#0073AB"/>
<circle cx="15.4416" cy="15.4412" r="2.20588" transform="rotate(180 15.4416 15.4412)" fill="#0073AB"/>
<circle cx="2.20623" cy="15.4412" r="2.20588" transform="rotate(180 2.20623 15.4412)" fill="#0073AB"/>
<circle cx="147.794" cy="2.20592" r="2.20588" transform="rotate(180 147.794 2.20592)" fill="#0073AB"/>
<circle cx="134.559" cy="2.20592" r="2.20588" transform="rotate(180 134.559 2.20592)" fill="#0073AB"/>
<circle cx="121.323" cy="2.20592" r="2.20588" transform="rotate(180 121.323 2.20592)" fill="#0073AB"/>
<circle cx="108.088" cy="2.20592" r="2.20588" transform="rotate(180 108.088 2.20592)" fill="#0073AB"/>
<circle cx="94.8527" cy="2.20592" r="2.20588" transform="rotate(180 94.8527 2.20592)" fill="#0073AB"/>
<circle cx="81.6174" cy="2.20592" r="2.20588" transform="rotate(180 81.6174 2.20592)" fill="#0073AB"/>
<circle cx="68.382" cy="2.20592" r="2.20588" transform="rotate(180 68.382 2.20592)" fill="#0073AB"/>
<circle cx="55.1467" cy="2.20592" r="2.20588" transform="rotate(180 55.1467 2.20592)" fill="#0073AB"/>
<circle cx="41.9113" cy="2.20592" r="2.20588" transform="rotate(180 41.9113 2.20592)" fill="#0073AB"/>
<circle cx="28.6769" cy="2.20592" r="2.20588" transform="rotate(180 28.6769 2.20592)" fill="#0073AB"/>
<circle cx="15.4416" cy="2.20592" r="2.20588" transform="rotate(180 15.4416 2.20592)" fill="#0073AB"/>
<circle cx="2.20623" cy="2.20592" r="2.20588" transform="rotate(180 2.20623 2.20592)" fill="#0073AB"/>
</g>
</svg>
